<mxfile host="app.diagrams.net" modified="2024-04-03T04:29:17.436Z" agent="Mozilla/5.0 (Windows NT 10.0; Win64; x64) AppleWebKit/537.36 (KHTML, like Gecko) Chrome/123.0.0.0 Safari/537.36" etag="htwG-Cl6fYdK2CSZxx4W" version="24.2.1" type="device">
  <diagram name="Page-1" id="xciqsUf9dGCY_LFa9zmJ">
    <mxGraphModel dx="1050" dy="557" grid="1" gridSize="10" guides="1" tooltips="1" connect="1" arrows="1" fold="1" page="1" pageScale="1" pageWidth="850" pageHeight="1100" math="0" shadow="0">
      <root>
        <mxCell id="0" />
        <mxCell id="1" parent="0" />
        <mxCell id="euy1Q944Mwge_UueiMNF-5" style="edgeStyle=orthogonalEdgeStyle;rounded=0;orthogonalLoop=1;jettySize=auto;html=1;entryX=0.5;entryY=0;entryDx=0;entryDy=0;" edge="1" parent="1" source="euy1Q944Mwge_UueiMNF-1" target="euy1Q944Mwge_UueiMNF-4">
          <mxGeometry relative="1" as="geometry" />
        </mxCell>
        <mxCell id="euy1Q944Mwge_UueiMNF-1" value="Title Screen" style="rounded=0;whiteSpace=wrap;html=1;" vertex="1" parent="1">
          <mxGeometry x="365" y="80" width="120" height="60" as="geometry" />
        </mxCell>
        <mxCell id="euy1Q944Mwge_UueiMNF-7" style="edgeStyle=orthogonalEdgeStyle;rounded=0;orthogonalLoop=1;jettySize=auto;html=1;entryX=0;entryY=0.5;entryDx=0;entryDy=0;" edge="1" parent="1" source="euy1Q944Mwge_UueiMNF-4" target="euy1Q944Mwge_UueiMNF-6">
          <mxGeometry relative="1" as="geometry" />
        </mxCell>
        <mxCell id="euy1Q944Mwge_UueiMNF-9" style="edgeStyle=orthogonalEdgeStyle;rounded=0;orthogonalLoop=1;jettySize=auto;html=1;entryX=0.5;entryY=0;entryDx=0;entryDy=0;" edge="1" parent="1" source="euy1Q944Mwge_UueiMNF-4" target="euy1Q944Mwge_UueiMNF-8">
          <mxGeometry relative="1" as="geometry" />
        </mxCell>
        <mxCell id="euy1Q944Mwge_UueiMNF-4" value="Buttons" style="rhombus;whiteSpace=wrap;html=1;" vertex="1" parent="1">
          <mxGeometry x="385" y="180" width="80" height="80" as="geometry" />
        </mxCell>
        <mxCell id="euy1Q944Mwge_UueiMNF-6" value="Credit Screen" style="rounded=0;whiteSpace=wrap;html=1;" vertex="1" parent="1">
          <mxGeometry x="520" y="190" width="120" height="60" as="geometry" />
        </mxCell>
        <mxCell id="euy1Q944Mwge_UueiMNF-8" value="GamePlay" style="rounded=0;whiteSpace=wrap;html=1;" vertex="1" parent="1">
          <mxGeometry x="365" y="300" width="120" height="60" as="geometry" />
        </mxCell>
      </root>
    </mxGraphModel>
  </diagram>
</mxfile>
